<?xml version="1.0" encoding="UTF-8"?>
<svg version="1.1" viewBox="0 0 2048 2048" width="1280" height="1280" xmlns="http://www.w3.org/2000/svg">
<path transform="translate(1319,32)" d="m0 0h241l2 2 9 37 7 31 3 14 11 3 24 8 30 12 33 16 7 4 5-1 19-12 16-10 26-16 9-5 8 7 163 163-1 5-10 17-12 19-16 26-4 7 1 5 9 17 13 29 10 26 10 30 50 12 33 8 1 1v241l-6 3-77 18-3 7-12 35-11 26-14 29-4 8 1 5 14 23 12 19 14 23 2 3-1 5-168 168-6-1-19-12-26-16-22-14h-5l-19 10-26 12-26 10-33 11-5 23-14 59-3 2h-239l-2-1-14-58-5-23-1-2-30-10-28-11-24-11-20-10-1-1h-5l-21 13-24 15-23 14-5 1-170-170 2-5 15-24 13-21 11-18 3-5-1-5-12-23-11-25-11-29-8-25-5-2-85-20h-2l-35 70v4l11 3 12 5 11 7 11 9 8 8 10 15 7 15 4 16 1 7v14l-2 16-5 15-7 14-9 12-6 7-7 6h-2l7 8 104 104 7 8 13 14 9 11 12 15 13 18 10 15 11 18 12 21 8 15 15 33 9 23 11 34 9 36 5 28 4 29 2 23 1 26v30l-1 27-3 32-5 33-8 36-9 31-11 31-12 28-13 27-13 23-15 24-12 17-12 16-11 14-9 10-7 8-9 10-25 25-8 7-14 12-15 12-15 11-16 11-17 11-28 16-30 15-21 9-24 9-24 8-38 10-39 7-35 4-13 1-38 1-28-1-32-3-27-4-26-5-28-7-29-9-27-10-25-11-25-12-23-13-21-13-23-16-13-10-16-13-14-12-15-14-22-22-7-8-9-10-22-28-12-17-13-20-13-22-14-27-12-26-10-26-11-33-9-36-6-32-4-31-2-28v-62l2-29 5-37 5-26 8-32 9-29 11-29 13-29 11-22 9-15 5-9 12-19 12-17 9-12 11-14 13-15 7-8 12-13 107-107-4-5-3-2v-2l-3-1-11-14-8-14-6-17-2-11v-22l4-19 6-14 9-14 9-10 8-8 14-9 11-5 14-4-1-5-92-184-8-20-4-15-2-13v-33l3-18 5-16 9-19 9-13 11-13 10-9 16-11 16-8 18-6 10-2 10-1h20l14 2 16 6 12 7 10 8 11 10 7 8 12 13 8 6 8 3h8l10-3 10-9 13-13 7-8 7-7 13-10 16-8 15-4 9-1h18l17 3 15 6 14 9 11 10 2 1v2h2v2h2l7 8 11 12 7 6 10 4h8l10-3 7-6h2v-2l14-14 7-8 7-7 12-9 10-6 14-5 8-2 9-1h20l19 3 21 7 15 8 14 10 14 13 11 14 4 5 17-4 20-5h2l3-11 10-29 9-22 11-24 10-19-1-5-11-18-15-24-16-26v-5l10-9 160-160 10 5 26 16 24 15 13 8 5-1 19-10 19-9 27-11 36-12 2-3 17-72z" fill="#010101"/>
<path transform="translate(366,992)" d="m0 0h420l8 7 132 132 7 8 10 11 11 14 13 17 16 24 8 13 12 22 13 27 11 28 9 27 7 26 7 36 4 33 1 13v73l-2 23-4 28-7 34-9 31-8 23-10 24-12 25-10 19-16 26-13 18-9 12-13 16-12 14-10 10-1 2h-2l-2 4h-2l-2 4-8 7-7 7-11 9-8 7-13 10-18 13-16 10-15 9-22 12-22 11-28 11-33 11-36 9-30 5-26 3-13 1h-59l-23-2-29-4-34-7-34-10-30-11-23-10-28-14-22-13-21-14-11-8-13-10-13-11-11-9-10-10-8-7-4-5-15-15-9-11-10-12-12-16-11-16-12-19-15-27-10-21-10-24-10-28-8-28-6-29-5-33-2-25-1-26v-27l2-36 4-31 6-31 8-30 11-33 11-26 12-25 13-23 15-23 12-17 11-14 9-11 11-12 7-8 136-136z" fill="#B4DC7E"/>
<path transform="translate(1371,96)" d="m0 0h138l2 2 8 33 8 34 1 3 18 5 26 7 29 10 26 11 16 8 24 13 20 12 5-1 14-9 42-26 1-1h5l11 12 83 83 3 2-1 5-17 28-12 19-7 11 1 6 16 27 14 27 12 28 9 25 8 28 5 20v2l18 4 42 10 11 3 2 3-1 138-13 4-55 13-3 1-7 26-7 23-7 21-12 28-8 17-12 22-11 18-2 4 1 5 12 19 14 23 10 16-1 4-97 97-4-1-17-10-42-26-5 1-26 15-27 14-25 11-24 9-33 10-21 5-4 13-14 58-1 1-106 1h-34l-5-17-10-42-3-13-18-5-25-7-30-10-30-13-22-11-24-14-10-6-5 1-25 15-19 12-14 9h-4l-7-8-7-6v-2l-4-2v-2l-4-2v-2l-4-2v-2l-4-2-5-6-49-49-5-4-5-6-3-3 1-5 13-21 14-23 9-14-1-5-10-16-16-29-13-29-10-27-7-22-8-31v-3l-17-4-71-17-26-6-1-3 30-60 6-16 4-18 1-8 1-25 3-2 56-14 13-4 8-29 8-26 9-25 12-27 11-21 16-27 2-3-1-5-11-17-12-20-13-21v-4l5-4 7-8 85-85 6 1 16 10 18 11 24 15 6-2 29-17 25-13 21-9 27-10 27-8 24-6 3-3 16-63 2-6z" fill="#FDC531"/>
<path transform="translate(1418,288)" d="m0 0h42l28 3 26 5 28 8 28 11 16 8 17 9 14 9 18 13 13 11 11 9 14 14 7 8 12 14 13 18 12 19 15 29 10 25 8 26 6 29 3 22 1 16v29l-2 25-4 24-7 28-8 23-8 19-10 19-11 19-14 20-13 16-14 15-17 17-11 9-13 10-18 12-17 10-17 9-27 11-25 8-27 6-19 3-24 2h-27l-25-2-30-5-27-7-28-10-29-14-14-8-21-14-13-10-14-12-13-12-7-7-7-8-11-13-11-15-10-15-12-22-11-23-9-25-6-21-5-24-3-22-1-13v-38l2-21 4-23 6-25 8-24 11-26 10-19 13-21 14-19 12-14 11-12 10-10 8-7 13-11 19-14 20-12 22-12 29-12 26-8 22-5 27-4z" fill="#FCD473"/>
<path transform="translate(1414,224)" d="m0 0h51l36 4 25 5 23 6 27 9 21 9 19 9 23 13 14 9 14 10 18 14 12 11 8 7 20 20 7 8 13 16 13 18 12 19 14 25 9 19 10 26 9 29 6 28 3 17 3 29v48l-3 28-5 28-7 28-9 27-11 26-11 22-16 27-13 18-11 14-11 13-12 13-17 17-11 9-13 11-14 10-15 10-22 13-16 8-24 11-35 12-28 7-30 5-18 2-15 1h-34l-34-3-25-4-29-7-30-10-24-10-16-8-19-10-22-14-11-8-16-12-11-10-16-14-7-8-9-9-7-8-12-15-14-19-13-21-13-24-9-19-8-20-9-29-6-25-4-23-3-33v-42l3-32 5-28 7-28 9-27 9-22 8-16 9-17 11-18 11-16 10-13 9-11 9-10 6-7h2l2-4 8-8 8-7 12-11 14-11 18-13 21-13 24-13 20-9 24-9 19-6 28-7 30-5zm4 64-26 3-21 4-24 6-23 8-27 12-25 14-15 10-16 12-13 11-16 15-9 9-9 11-10 12-14 20-12 21-8 15-8 19-7 19-7 25-4 20-3 21-1 13v38l2 21 5 30 6 23 9 26 11 24 11 21 9 14 12 17 11 13 7 8 11 12 7 7 8 7 13 11 18 13 19 12 27 14 19 8 27 9 24 6 26 4 25 2h27l32-3 26-5 25-7 25-9 24-11 21-12 18-12 12-9 11-9 12-11 18-18 7-8 12-15 16-24 13-23 8-17 7-17 7-22 7-29 4-28 1-16v-29l-2-24-5-30-7-27-7-20-9-21-14-27-16-24-10-13-12-14-14-15-14-13-11-9-19-14-19-12-20-11-23-10-22-8-27-7-21-4-28-3z" fill="#010101"/>
<path transform="translate(343,480)" d="m0 0h13l9 3 10 8 14 15 7 8 11 10 11 7 12 6 12 4 12 2h20l15-3 16-6 14-9 14-12 9-10 7-8 9-9 9-5 3-1h11l9 4 9 7 12 13 9 10 7 7 13 9 14 7 12 4 12 2h20l15-3 16-6 14-9 14-12 11-12 9-10 8-7 10-4h11l14 3 10 4 10 7 5 4 9 11 6 12 3 12 1 8v15l-2 14-6 15-79 158-9 17-11 23-9 16-81 1h-16l1-7 15-52 16-56 19-66v-2l-19-6-42-12-4 16-34 119-14 48-5 16-2 2h-11l-4-4-13-44-15-53-22-77-6-22-9 2-49 14-3 1 3 12 34 119 10 36 3 10v5l-89 1-8-1-109-218-4-11-2-14v-16l2-13 5-13 7-10 6-7 13-9 13-6z" fill="#B4DC7E"/>
<path transform="translate(545,1183)" d="m0 0h63l1 70 9 2 19 8 11 7 12 9 15 15 11 16 8 15 7 21 3 18v11l-1 1h-62l-2-5-3-14-5-12-7-11-10-9-12-7-13-4-9-1h-67v65l2 15 6 15 7 9 4 5 14 10 13 5 15 2 22 2 15 3 16 6 14 7 17 12 12 11 11 14 9 15 7 16 5 17 2 16v138l-95 1-1 63h-64l-1-2v-67l-9-2-18-8-15-9-13-11-11-11-11-16-8-15-7-21-3-16v-14l4-1h60l3 18 6 15 7 9 5 5 7 6 8 5 11 4 5 1 26 1h50l-1-48-1-27-4-13-6-11-8-10-11-8-10-5-11-3-6-1-25-2-18-4-16-6-15-8-16-12-8-7-7-8-10-14-9-17-7-21-3-18v-140l1-1 94-1v-34l1-28z" fill="#010101"/>
<path transform="translate(1640,490)" d="m0 0 4 1 5 5v2l4 2 33 33-2 5-306 306-3 1-150-150 6-7 39-39 7 6 98 98 4-2z" fill="#010101"/>
<path transform="translate(346,864)" d="m0 0h459l10 3 9 7 6 10 2 7v9l-3 10-4 6-5 5-6 4-6 2-9 1h-449l-10-2-10-6-6-8-4-10v-12l4-11 7-8 8-5z" fill="#FAFCF9"/>
<path transform="translate(907,1590)" d="m0 0 7 1 38 13 16 6-1 5-11 27-13 27-16 27-11 16-9 12-11 14-10 11-7 8-24 24-8 7-15 12-19 14-20 13-21 12-21 11-32 13-24 8-27 7-26 5-22 3-26 2h-18l-1-1v-56l1-7 1-1 23-1 34-4 29-6 30-9 25-10 23-11 27-16 17-12 17-13 14-13 8-7 7-7 7-8 12-14 14-19 11-17 12-21 12-25 6-15z" fill="#010101"/>
<path transform="translate(413,1034)" d="m0 0 4 1 43 43-6 7-140 140-9 11-12 15-16 24-12 21-13 27-9 23-3 7-7-1-15-5-36-11-2-1 1-8 10-27 13-28 12-22 12-19 14-20 13-16 12-14 15-16z" fill="#010101"/>
<path transform="translate(929,1471)" d="m0 0h63v19l-3 36-2 14-4 1-57-9-3-2 3-31 1-20 1-7z" fill="#010101"/>
<path transform="translate(164,1404)" d="m0 0h9l36 5 16 2 2 1-1 21-2 39h-64l-1-2 1-25 2-33 1-7z" fill="#010101"/>
</svg>
