<?xml version="1.0" encoding="UTF-8"?>
<svg version="1.1" viewBox="0 0 2048 2048" width="1280" height="1280" xmlns="http://www.w3.org/2000/svg">
<path transform="translate(900)" d="m0 0h148l26 6 17 5 21 9 20 11 19 14 12 11 17 17 6 8 9-3 19-7 23-6 14-2 25-1 18 1 24 4 21 6 24 10 19 11 14 10 14 12 15 15 13 17 9 14 9 17 9 23 5 19 3 19 1 10 1 242 3 7 9 10 9 15 8 16 7 21 4 22v30l-4 23-7 21-8 16-7 12-10 13-12 13-15 12-13 8-16 8-13 5-21 5-13 2h-16l-3 21-8 32-10 29-11 24-11 21-12 19-14 19-9 11-11 12-4 5h-2l-2 4-13 12-14 12-19 14-14 9-2 1v84l35 17 32 16 19 10 30 14 24 10 10 4h2l2-4 11-12 7-8 8-8 8-7 18-14 24-15 25-12 30-10 22-5 23-3h43l23 3 22 5 20 6 26 11 18 10 15 10 12 9 14 12 20 20 11 14 11 16 10 17 11 23 8 22 6 25 3 19 1 10v41l-3 24-5 22-10 30-12 25-10 17-14 19-10 11-6 8 1 22 21 257 17 204v22l-4 15-6 12-8 10-7 7-13 8-18 6-9 2-1 1h-1380l-16-6-11-6-10-9-8-9-8-16-3-13v-21l19-231 8-97 7-87 15-184 3-26 5-21 9-22 13-21 11-13 6-7 8-7 13-10 15-9 12-6 24-8 155-39 66-17 33-10 28-11 29-13 24-12 15-9 23-11 21-10 11-6 1-1v-84l-18-12-13-10-11-9-10-9-24-24-9-11-13-17-10-15-11-19-9-17-10-24-10-30-6-26-4-21-24-2-22-5-17-6-21-11-14-10-13-12-8-8-10-13-9-15-7-15-5-15-4-18-1-7-1-19 2-20 4-19 7-19 8-16 10-15 13-15 6-7 1-153 2-25 5-31 6-24 10-30 12-27 10-19 13-21 12-17 14-17 10-11 7-8 5-4 5-5 14-13 17-13 19-13 15-9 23-12 20-9 22-8 30-8 32-6z" fill="#010101"/>
<path transform="translate(777,1159)" d="m0 0 3 1 4 21 10 68 7 46 10 66 6 39 11 73 12 79 14 94 10 66 12 80 8 55 6 41 10 66 6 39 2 10v5h-322l-1-1-1-525-4-7-5-4-4-2h-11l-7 4-5 6-1 3-1 53v472l-1 1h-209l-9-3-8-6-6-10-1-4v-19l16-196 11-139 19-235 3-37 4-22 6-16 7-13 8-11 9-10 10-9 14-9 12-6 26-8 210-53 39-12 29-11 33-15z" fill="#3BABDD"/>
<path transform="translate(1083,339)" d="m0 0 5 1 7 7 20 15 21 13 21 11 24 10 20 7 24 7 25 5 26 4 27 3 16 1 2 2 1 74v201l-1 34-2 19-6 29-8 26-9 22-8 17-11 19-11 16-10 13-11 13-14 15-10 9-13 11-17 12-15 9-20 11-23 10-19 7-26 7-29 5-9 1h-50l-17-2-23-4-26-7-20-7-20-9-27-14-16-11-12-9-13-11-8-7-14-14-9-11-10-12-16-24-10-18-10-21-9-24-7-25-4-21-3-31-1-29v-80l1-103 1-54 3-1 16 3 24 3 18 1h38l21-1 36-5 26-6 27-8 25-10 19-9 21-12 16-11 12-9 16-13 15-14 8-8 7-8z" fill="#F6CEB3"/>
<path transform="translate(910,40)" d="m0 0h129l20 3 23 7 19 9 16 10 16 13 14 14 10 13 10 14 4 3 5 2h7l12-5 16-8 16-6 16-4 16-2h26l22 3 19 5 18 8 18 10 13 10 10 9 11 11 10 13 9 15 9 19 6 20 3 15 1 9 1 90v123l-5-1-20-8-14-4-29-4-4-2v-26l-2-10-5-10-6-7-12-6-9-2-38-3-33-5-30-7-36-12-24-11-16-9-15-10-16-12-12-10-14-7h-19l-10 5-10 9-11 12-7 8-18 18-11 9-17 13-16 10-16 9-19 9-24 9-25 7-25 5-36 4h-38l-31-3-28-4h-23l-10 6-8 8-7 14-31 4-21 6-8 3h-3v-130l2-21 5-27 6-23 8-23 8-18 8-16 8-14 8-12 12-16 8-10 12-13 5-6 8-7 14-13 16-12 18-12 21-12 21-10 24-9 30-8 23-4z" fill="#7F8081"/>
<path transform="translate(1267,1159)" d="m0 0 9 3 16 8 17 8 20 8-2 6-11 26-7 22-5 23-2 14-1 16v30l2 19 4 22 5 19 7 19 13 27 12 19 12 16 9 10 7 8 10 10 8 7 10 8 14 10 17 10 17 9 28 11 3 2v458l-2 1h-337l-1-3 3-13 5-35 4-25 2-15 6-40 4-25 5-39 7-46 10-67 6-40 6-41 6-39 6-42 6-39 5-35 7-45 5-34 3-16 2-15 3-23 3-15 2-16 2-12 2-15 2-12 2-14 8-54 5-32z" fill="#3BABDD"/>
<path transform="translate(1538,1092)" d="m0 0h27l24 3 24 6 20 7 23 11 20 13 14 11 12 11 12 12 11 14 10 15 8 14 9 21 6 18 5 22 3 24v26l-4 28-6 22-7 19-10 21-12 19-14 17-10 9-11 9-16 13-19 12-17 9-21 8-21 6-23 4h-45l-20-3-17-4-20-7-11-5-16-8-16-10-14-11-12-11-11-11-9-11-12-17-13-24-8-20-7-26-4-26v-34l4-26 6-23 10-25 9-17 12-18 8-10 11-12 11-11 14-11 14-10 22-12 19-8 18-6 24-5z" fill="#90CE50"/>
<path transform="translate(1697,1514)" d="m0 0h2l3 42 8 100 12 147 12 143 2 24v15l-4 10-5 6-7 5-8 2h-193l-1-1v-450l3-1 13 2h36l30-4 25-6 21-7 24-11 19-11z" fill="#3BABDD"/>
<path transform="translate(984,1418)" d="m0 0h80l2 4 21 144 31 214 6 40v20l-2 9-3 22-8 53-11 74-3 9-2 1h-144l-2-2-9-59-7-48-8-52-1-5v-23l6-38 15-105 10-68 19-132 8-56z" fill="#3C70BC"/>
<path transform="translate(887,1018)" d="m0 0 5 1 17 7 26 8 22 5 16 3 29 3 17 1h12l26-2 23-3 24-5 25-7 17-6 12-5h3v66l-5 13-11 22-11 23-33 68-11 23-6 8-10 1h-42l-73-1-5-5-8-16-14-31-16-36-16-35-13-30-1-7v-62z" fill="#F5CDB3"/>
<path transform="translate(1644,1194)" d="m0 0h9l12 2 11 4 12 8 9 9 7 12 5 17v15l-3 12-8 16-11 12-30 30-7 8-80 80-11 7-10 4-10 2h-17l-12-3-12-6-10-8-76-76-7-11-4-11-2-8v-15l3-12 8-16 11-12 11-7 10-4 12-2 16 1 10 3 12 6 10 9 8 7 7 7 6 7 6 5v2l8-7 72-72 11-8 12-5z" fill="#010101"/>
<path transform="translate(1364,486)" d="m0 0 16 1 17 4 15 6 15 9 10 8 13 12 8 10 9 16 6 17 3 17v24l-3 17-7 19-9 16-7 9-9 10-11 9-14 9-15 6-13 4-16 3h-8l-2-4v-124l1-97z" fill="#F6CDB3"/>
<path transform="translate(681,486)" d="m0 0 4 1 1 16v209h-13l-15-3-15-5-17-9-12-9-10-9-11-14-8-13-7-17-4-16-1-6v-23l4-20 6-16 7-13 8-11 11-12 10-8 13-8 15-7 17-5z" fill="#F2CCB2"/>
<path transform="translate(909,1312)" d="m0 0h3l12 32 2 5v3h2l1 8h2l3 8v5h2l3 8v5h2l3 9 1 9-4 30-12 83-15 103-9 62h-2v5h-2l-3-21-2-7-2-20-2-7-2-20-4-26-1-1-2-19-5-33-2-7-2-20-2-13v-7h-2l-3-26-3-20v-7h-2v-13h-2l-1-13-1-1-3-20 1-7 11-14 14-17 12-15h2l1-4 9-11 2-1z" fill="#D6E7EC"/>
<path transform="translate(1137,1315)" d="m0 0h3v3l3 1v3l4 2 9 11 13 16 11 14 4 5v3l4 2 3 4 1 10-21 139-20 132-4 33h-2l-5-31-8-55-2-21-5-35v-6h-2l-4-27-2-22v-6h-2l-3-21v-13h-2l-6-43v-14l5-13h2l1-8 6-15h2l2-11 2-5h2l1-8 2-5h2l1-8h2l1-7z" fill="#D6E7EC"/>
<path transform="translate(895,765)" d="m0 0h11l8 5 6 7 7 9 9 10 8 8 13 9 19 10 15 5 13 3 9 1h24l18-3 21-7 15-8 14-10 13-12 11-14 7-9 7-4h12l6 3 6 7 2 5v8l-4 9-9 12-12 13-7 7-11 9-18 12-16 8-18 7-21 5-15 2h-28l-21-3-15-4-16-6-16-8-16-10-13-11-9-8-7-8-10-13-6-11v-11l3-6 5-5z" fill="#010101"/>
<path transform="translate(1643,1236)" d="m0 0h11l9 4 5 8v11l-2 5-7 9-115 115-4 1v2l-9 3-9-2-2-1v-2l-4-1-71-71v-3h-2l-2-6h-2l-1-10 4-9 7-6 5-2h8l4 1v2l5 1 8 7 37 37v2h2v2l5 1v2l12-1 5-1 1-3 8-7 53-53 7-6 5-5 4-5h2v-2h2v-2l16-14z" fill="#F7F8F9"/>
<path transform="translate(1104,1276)" d="m0 0h3l-1 5-11 29-19 49-7 17-3 2h-31l-56-1-4-8-12-30-15-38-8-19v-3l9 2 4 1 30 1h85l19-1 16-5z" fill="#3B9BD5"/>
<path transform="translate(1189,1121)" d="m0 0 6 2 17 9 16 8v7l-2 4-11 77-2 17-1 2-4 33-2 5-2 17-2 14-3 9-3-1-2-6h-2v-2l-3-1v-3h-2l-9-11-4-5v-3l-4-2-5-6v-3l-4-2v-3l-4-2-5-8-2-5-5-5-8-10-2-2v-3l-3-1 4-8 3-7 4-8 3-7h2l1-6 1-2h2l1-6 3-5 1-4h2l2-8 5-10 5-9 4-10 8-15 5-13z" fill="#FAFAFB"/>
<path transform="translate(855,1123)" d="m0 0 5 5 3 7 2 8h2l1 7h2l16 36 7 17 3 5 3 8 5 11 1 5h2l1 7h2l3 6-1 4h-3l-1 4h-2l-2 5-13 17-26 32-2 3h-2l-2 5-7 9-2 3h-2l-2-11v-4h-2l-2-22-2-6-2-21-2-6-2-20-3-20-1-2-4-31-5-33-1-1v-10l4-3 5-2 16-8z" fill="#FBFBFB"/>
<path transform="translate(465,200)" d="m0 0h10l10 5 6 8 2 7v19h20l10 4 6 7 3 7v9l-4 8-5 5-5 3-10 2-15 1v19l-4 9-4 5-7 4-4 1h-8l-10-5-6-8-2-4-1-22h-19l-7-3-7-5-5-9v-11l4-8 8-7 6-2 20-1 1-20 4-9 8-7z" fill="#3CACDD"/>
<path transform="translate(1137,1315)" d="m0 0h3v3l3 1v3l4 2 9 11 13 16 11 14 4 5v3l4 2 3 4 1 10-21 139-20 132-4 33h-2l-5-31-8-55-2-21-5-35v-6h-2l-4-27-2-22v-6h-2l-3-21v-13h-2l-6-43v-14l5-13h2l1-8 6-15h2l2-11 2-5h2l1-8 2-5h2l1-8h2l1-7zm5 28-7 10-8 16-6 15-5 12-2 10v8l1 14 2 10v9l1 7h2v9l1 10 1 9 2 7 1 11 2 11 2 17v6l2 10 3 25 2 14 1 15 2 6 2 15 2 5 5 2 2-16 2-6 1-23 2-7 1-16 3-11 1-17 3-10 1-15 3-9 1-15 3-12 1-16 3-13v-10l3-20v-22l-4-8-6-8-7-10-3-5-3-6-5-6-5-2z" fill="#F1F3F5"/>
<path transform="translate(909,1312)" d="m0 0h3l12 32 2 5v3h2l1 8h2l3 8v5h2l3 8v5h2l3 9 1 9-4 30-12 83-15 103-9 62h-2v5h-2l-3-21-2-7-2-20-2-7-2-20-4-26-1-1-2-19-5-33-2-7-2-20-2-13v-7h-2l-3-26-3-20v-7h-2v-13h-2l-1-13-1-1-3-20 1-7 11-14 14-17 12-15h2l1-4 9-11 2-1zm-3 25-3 3-10 13-7 9v2h-2l-6 8-8 9-2 5 2 28 2 15 1 10 4 25 6 43 1 8 3 21 1 9 2 12 1 11 2 13 1 15 2 6 1 13 2 4 5 1 3-11 1-1 1-23 3-15 1-13 3-13 2-16 2-8 2-18 2-7 1-14 3-14 2-20 2-5 1-17 3-18-4-18-8-24-2-3-2-7-6-10-4-7z" fill="#F4F5F7"/>
<path transform="translate(1557,777)" d="m0 0h2l6 17 8 14 11 12 8 6 15 8 15 5v4l-12 3-12 5-14 10-8 8-9 14-6 16-2 5h-2l-6-16-6-11-10-13-11-9-16-8-14-4-2-3 9-3 13-5 13-8 10-9 8-10 8-16 3-11z" fill="#F8CA8F"/>
<path transform="translate(1160,575)" d="m0 0h15l10 4 8 6 6 7 5 12 1 9-2 10-5 10-7 8-8 5-10 3h-9l-11-2-10-6-8-9-4-9-1-4v-14l4-11 6-8 7-6 8-4z" fill="#010101"/>
<path transform="translate(881,575)" d="m0 0h13l9 3 9 6 7 8 5 12 1 9-2 10-5 10-7 8-8 5-10 3h-9l-12-3-9-5-7-8-4-8-2-7v-13l4-11 6-8 7-6 9-4z" fill="#010101"/>
<path transform="translate(1659,952)" d="m0 0h9l9 3 7 7 4 10v8l-3 8-7 8-7 3-9 1-9-2-8-7-5-10v-10l3-8 5-5 5-4z" fill="#F7C98F"/>
<path transform="translate(211,1552)" d="m0 0h9l9 3 7 7 4 10v8l-3 8-7 8-7 3-8 1-10-2-8-7-5-10v-10l3-8 5-5 5-4z" fill="#F8C98E"/>
<path transform="translate(419,440)" d="m0 0h9l9 3 7 7 4 10v8l-3 8-7 8-7 3-8 1-10-2-8-7-5-10v-10l3-8 5-5 5-4z" fill="#90CF4F"/>
<path transform="translate(1478,1549)" d="m0 0h1v458l-2 1h-337l-1-3 2-4v6l335-1v-399l1-56z" fill="#3B7FC4"/>
<path transform="translate(727,457)" d="m0 0h1l1 86 1 199 1 18h-1l-3-23-1-14-1-29v-80l1-103z" fill="#6F878A"/>
<path transform="translate(1363,487)" d="m0 0h1l1 81 1 143 21-4h5l-4 2-16 3h-8l-2-4v-124z" fill="#70878A"/>
<path transform="translate(969,1341)" d="m0 0 3 3 1 6h2l5 13-1 4 3 1 2 4h-2l1 4h-5l-11-27-1-7z" fill="#3BA3D9"/>
<path transform="translate(1191,1384)" d="m0 0h1l-1 12-15 99h-1l1-15 2-20 1-15 2-4 1-9 2-6 3-18 2-15z" fill="#8397B1"/>
<path transform="translate(1166,1548)" d="m0 0h1l-1 13-15 99-4 33h-2l-1-12 1 2h2v-9l6-42 11-72z" fill="#61799B"/>
<path transform="translate(930,1496)" d="m0 0h1v8l-11 74h-1l1-14 2-14 1-20 1-7h-2l2-4 2-3h2l1-13z" fill="#8BA0B7"/>
<path transform="translate(726,704)" d="m0 0 3 3 1 35 1 18h-1l-3-23-1-14z" fill="#6C7E90"/>
<path transform="translate(938,1441)" d="m0 0h1v8l-7 47h-1v-8l1-13-1-7h2l2-20 2-1z" fill="#99ACC0"/>
<path transform="translate(914,1599)" d="m0 0h1l-1 13-6 41h-1v-15l2-9 3-24z" fill="#DAE3E4"/>
<path transform="translate(930,1488)" d="m0 0h1v8l-3 20h-1v-16l-2-7 3-2 2 1z" fill="#D8E5E8"/>
<path transform="translate(1109,1427)" d="m0 0 2 1-1 10 2 1-1 17h-1l-3-22v-6z" fill="#A2B7C8"/>
<path transform="translate(961,1330)" d="m0 0h4 2l1 2v8l-3 4-4-10z" fill="#3B9FD7"/>
<path transform="translate(942,1413)" d="m0 0h1v8l-3 19h-1v-17l1-8z" fill="#A0B0C0"/>
<path transform="translate(904,1660)" d="m0 0h3v8l-2 14h-1l-1-16z" fill="#9BB0C4"/>
<path transform="translate(938,1441)" d="m0 0h1v8l-3 19h-1v-20l2-1z" fill="#93A6BC"/>
<path transform="translate(922,1543)" d="m0 0h1l-1 14-2 14h-1v-23l2-1z" fill="#D9E4E6"/>
<path transform="translate(1363,706)" d="m0 0h2l1 5 21-4h5l-4 2-16 3h-8l-1-1z" fill="#71828B"/>
<path transform="translate(1158,1595)" d="m0 0h1l-1 11-2 14-2-2 1-13 1-2h-2l1-3 2-1z" fill="#D9E4E5"/>
<path transform="translate(918,1571)" d="m0 0h1l-1 14-2 13h-1v-13l1-8z" fill="#D9E4E5"/>
<path transform="translate(1104,1406)" d="m0 0h2l2 11-1 11h-1l-2-15z" fill="#9AAFBF"/>
<path transform="translate(1114,1459)" d="m0 0h1v24h-1l-2-14v-7h2z" fill="#8CA3BC"/>
<path transform="translate(1147,1674)" d="m0 0h1v11l-1 8h-2l-1-12 1 2h2z" fill="#5977A2"/>
<path transform="translate(1120,1512)" d="m0 0h3v19h-1l-2-14z" fill="#DBE8EC"/>
<path transform="translate(1177,1468)" d="m0 0h1l-1 12-1 8h-1v-15z" fill="#D9E4E6"/>
<path transform="translate(940,1279)" d="m0 0 7 1v4l-4 1-3-3z" fill="#3B95D1"/>
<path transform="translate(1454,1281)" d="m0 0h8l4 2-17 1 2-2z" fill="#8BA1BC"/>
</svg>
