<?xml version="1.0" encoding="UTF-8"?>
<svg version="1.1" viewBox="0 0 2048 2048" width="1280" height="1280" xmlns="http://www.w3.org/2000/svg">
<path transform="translate(855)" d="m0 0h108l21 6 13 5 15 8 12 9 10 9 10 11 12 19 7 17 4 14 3 24 2 11 4 5 7 3 11 1 67 1 20 4 16 6 15 8 12 9 12 11 9 10 10 15 8 17 5 14 312 1 17 2 16 5 15 8 13 10 11 12 9 14 6 14 4 16 1 15v236l-1 16-5 10-7 7-10 4-6 1v71l-1 6 5-4 8-11 10-12 11-14 9-11 11-12 14-11 15-9 17-7 18-4 7-1h25l17 3 16 5 16 8 11 7 13 11 11 12 10 15 8 17 5 16 3 19v19l-4 22-5 15-8 16-9 13-11 14-13 16-11 14-13 16-11 14-13 16-16 20-9 11-7 9-9 11-11 14-13 16-11 14-9 11-12 15-11 14-9 11-13 16-11 14-9 11-9 12-1 2v79l11 3 8 6 6 8 2 5 1 7v757l-1 23-4 17-9 19-9 12-8 9-15 11-17 8-16 5-5 1h-1359l-21-6-16-8-10-7-10-9-9-11-8-14-5-12-3-12-1-7v-1639l4-18 6-15 7-11 8-10 9-9 13-9 14-7 13-4 16-2 314-1 8-22 9-16 9-12 10-11 14-11 11-7 14-7 15-5 17-3 70-1 9-1 6-4 4-6 1-3 3-28 4-15 6-15 10-17 11-13 12-12 14-10 15-8 24-8z" fill="#010000"/>
<path transform="translate(350,298)" d="m0 0h196l1 9 1 22 2 8 3 10 3 9 2 1 5 8 9 9 7 6 15 8 13 4 8 1h70l67 1h296l18-1h61l83-1 11-3 9-4h2l1-2 4-1v-2l7-4 4-5 5-4 1-3 4-4 8-16 4-17 1-28 16-1h166l15 1 1 3 1 276 1 185 2 10 3 1 3 5 12 6 7 2 1 1v77l-8 11-13 16-11 14-6 7-1 3-3 2-1 3-5 5-3 5-3 2-1 3-5 5-6 7-1 3-5 5-14 17-8 10-1 3-8 8-1 3-5 5-9 11-2 4-5 5-14 17-6 9-5 5-13 16-2 4-3 3-4 5-7 8-1 3-5 5-4 6-5 5-6 8-7 8-9 12-7 8-6 9-5 5-6 8-4 4-1 3-5 5-6 8-4 4-1 3-5 5-10 12-1 3-5 5-10 12-11 14-9 11-2 4-5 5-9 11-2 4-5 5-9 11-2 4-3 2-1 3-3 2-1 3-5 5-6 7-1 3-3 2-1 3-3 2-1 3-5 5-10 12-1 3-5 5-10 12-1 3-5 5-10 12-1 3-4 4-7 8-9 12-7 8-6 9-7 7-1 3-5 5-3 5-3 2-1 3-5 5-6 7-1 3-5 5-14 17-11 14-13 16-1 3-5 5-4 6-5 5-9 11-2 4-5 5-9 11-22 28-7 8-1 3-5 5-6 10-4 9-1 3h-2l-2 8h-2l-1 6-2 4h-2l-3 9-9 17-9 19-54 108-2 6h-2v4h-2v2h-433l-3-1-5-6-2-9v-1505z" fill="#FAF7F7"/>
<path transform="translate(243,298)" d="m0 0h43l2 1 1 1506 1 17 3 14 5 12 6 9 9 10 13 9 13 6 13 3 20 1 123 1h121l108-1h51l6 18 5 10 7 9 8 8 13 8 13 5 10 2h19l17-4 16-9 16-13 14-11 14-12 14-11h115l132 1h123l108-1 41-1 16-4 15-8 11-9 9-12 7-14 3-10 1-8 1-79v-345l-1-36-5-12-5-6-8-4-6-2h-11l-10 4-7 6-4 6-1 3-1 17-1 444-1 3h-2l-2 4-5 3h-393v1h-43v-3l7-5 1-2 5-3 10-8 3-3 5-4 7-5 1-2 5-3 5-4 3-3 8-7 6-7 20-25 9-11 4-6 3-3 40-50 4-4 1-3 7-7 1-3 3-3 7-8 5-6 1-3 3-3 5-6 7-8 1-3 3-2 1-3 8-8 1-3 2-1 1-3 3-2 1-3 8-8 1-3 2-1 1-3 4-4 7-8 2-4 3-3 4-5 7-8 5-6 1-3 5-5 10-12 1-3 5-5 4-6 5-5 2-4 5-5 4-6 5-5 2-4 5-5 4-6 5-5 6-8 4-4 1-3 3-2 1-3 5-5 3-5 3-2 1-3 3-2 1-3 5-5 3-5 3-2 1-3 3-2 1-3 5-5 6-7 1-3 3-2 1-3 3-2 1-3 5-5 3-5 3-2 1-3 3-2 1-3 5-5 7-9 3-3 1-3 5-5 4-6 3-3 8-10 4-4 1-3 3-2 1-3 5-5 6-8 7-8 9-11 1-3 2-1 1-3h2l2-4 11-13 11-14 13-16 11-14 9-11 36-45 11-14 14-17 11-14 6-8h2l2-4 5-7h1v79l-1 1-12 2-6 4-8 9-3 8-1 161v597l-1 21-4 10-9 10-8 5-6 2-108 1h-1235l-11-2-10-6-6-5-5-8-3-11v-1622l2-12 4-8 5-6 9-6 8-3z" fill="#057EAA"/>
<path transform="translate(1601,833)" d="m0 0 4 1 11 9 14 11 16 13 14 11 16 13 14 11 9 7-1 4-21 27-9 11-11 14-13 16-11 14-9 11-11 14-14 17-7 9-13 16-11 14-9 11-11 14-14 17-7 9-13 16-11 14-13 16-11 14-13 16-11 14-9 11-13 16-11 14-13 16-11 14-13 16-11 14-13 16-11 14-13 16-8 10-11 14-13 16-8 10-11 14-14 17-11 14-13 16-11 14-13 16-8 10-11 14-10 12-7 9-12 15-9 11-11 14-13 16-11 14-14 17-11 14-13 16-11 14-13 16-10 13-1 2-5-2-8-7-14-11-10-8-16-13-14-11-11-9-18-14-3-2 2-4 11-14 13-16 11-14 9-11 11-14 10-12 7-9 13-16 8-10 11-14 13-16 8-10 11-14 13-16 8-10 11-14 14-17 11-14 13-16 11-14 13-16 8-10 11-14 13-16 8-10 11-14 10-12 10-13 18-22 10-13 11-13 10-13 8-10 9-11 13-16 11-14 13-16 11-14 13-16 11-14 9-11 11-14 13-16 8-10 11-14 13-16 8-10 11-14 13-16 11-14 9-11 12-15 11-14 9-11 13-16 8-10 11-14 14-17z" fill="#F97037"/>
<path transform="translate(1498,1258)" d="m0 0h1v76l-9 3-8 4-6 5-4 6-1 3-1 17-1 444-1 3h-2l-2 4-5 3h-393v1h-43v-3l7-5 1-2 5-3 10-8 3-3 5-4 7-5 1-2 5-3 5-4 3-3 8-7 6-7 20-25 9-11 4-6 3-3 40-50 4-4 1-3 7-7 1-3 3-3 7-8 5-6 1-3 3-3 5-6 7-8 1-3 3-2 1-3 8-8 1-3 2-1 1-3 3-2 1-3 8-8 1-3 2-1 1-3 4-4 7-8 2-4 3-3 4-5 7-8 5-6 1-3 5-5 10-12 1-3 5-5 4-6 5-5 2-4 5-5 4-6 5-5 2-4 5-5 4-6 5-5 6-8 4-4 1-3 3-2 1-3 5-5 3-5 3-2 1-3 3-2 1-3 5-5 3-5 3-2 1-3 3-2 1-3 5-5 6-7 1-3 3-2 1-3 3-2 1-3 5-5 3-5 3-2 1-3 3-2 1-3 5-5 7-9 3-3 1-3 5-5 4-6 3-3 8-10 4-4 1-3 3-2 1-3 5-5 6-8 7-8 9-11 1-3 2-1 1-3z" fill="#FAF7F7"/>
<path transform="translate(862,60)" d="m0 0h93l14 4 11 6 10 8 8 9 8 15 3 12 2 21 4 17 7 14 9 12 9 8 14 8 13 5 9 2 10 1h62l13 2 14 5 10 7 10 9 7 10 5 10 4 17v60l-8 10-5 2h-579l-6-3-1-3h-2l-3-5v-64l4-16 7-12 8-10 10-8 16-8 8-2 19-1 61-1 16-4 16-8 12-9 8-9 7-11 5-13 3-13 1-17 3-14 7-14 8-10 9-8 15-8z" fill="#F97037"/>
<path transform="translate(1642,1078)" d="m0 0h1v79l-1 1-12 2-6 4-8 9-3 8-1 161v597l-1 21-4 10-9 10-8 5-6 2-108 1v-1l11-1h10l-1-3 1-14 2-48 1-44 2-4 5-3 3-1 2-4h2l1-8 8-16 4-13 1-8 1-79v-345l-1-36-5-12-5-6-8-4-12-3v-78l9-10 11-14 13-16 11-14 13-16 36-45 11-14 14-17 11-14 6-8h2l2-4z" fill="#027092"/>
<path transform="translate(1530,298)" d="m0 0h41l16 2 10 5 8 8 5 11 1 4 1 249 2 12 4 7 8 7 10 4 7 1v71l-1 6 2 1-3 1-2 4-10 13-9 11-11 14-13 16-12 15-9 11-10 13-10 12-7 9-12 15-9 11-10 13-12 14-5 7h-1l-1-77-2-2 11-1 10-5 8-9 3-9 1-222v-241z" fill="#027092"/>
<path transform="translate(899,697)" d="m0 0h316l97 1 8 2 9 6 6 7 4 11v9l-4 11-4 5-7 6-6 3-5 1h-434l-10-4v-2l-4-1-4-4-6-12v-15l6-12 4-4h3v-2h3v-2l8-3z" fill="#020202"/>
<path transform="translate(974,993)" d="m0 0h323l19 1 12 6 7 8 4 10v10l-3 10-7 9-8 5-13 2-419 1-14-2-8-4-5-6-2-1v-3l-2-1-3-6v-16l5-10 4-5 9-6 3-1z" fill="#010101"/>
<path transform="translate(899,564)" d="m0 0h359l56 1 11 4v2l4 1 6 8 4 10v10l-4 11h-2l-1 4-4 4h-3v2h-3l-1 2-4 2h-440l-10-5v-2l-5-2v-3l-3-1-1-6-2-1-1-5v-12l4-9 2-3h2v-2h2l2-4 8-4 3-1z" fill="#010102"/>
<path transform="translate(1775,648)" d="m0 0h9l15 3 16 8 12 11 8 11 5 12 3 14v8l-4 18-8 15-13 16-13 17-10 12-11 14-26 32-11 14-8 11-4-1-14-11-16-13-10-8-14-11-17-14-14-11-10-8 1-4 8-10 13-16 11-14 9-11 13-16 11-14 13-16 10-13 6-7 10-8 12-6 10-3z" fill="#FCC6AD"/>
<path transform="translate(703,1420)" d="m0 0h14l10 4 7 6 2 3v3h2l2 7 1 12-4 11-13 19h-2l-1 4-4 6h-2l-1 4-4 6h-2l-1 4-14 20-4 6h-2l-1 4-4 6h-2l-1 4-9 13h-2v3h-2l-1 4-4 6h-2l-1 4-4 6h-2l-1 4-4 6h-2v3h-2l-1 4h-2l-1 4-8 10-6 5h-3v2h-3l-1 2-9 4-7 2-7 1h-8l-14-3-12-6-3-2v-2l-5-2-2-4-4-2-6-5-3-3-5-4-4-4-6-5v-2l-5-2-4-4v-2l-5-2-5-6-6-4-5-5-6-5-1-4-3-1-3-8-1-7v-8l4-9 7-8 8-5 8-2 11 1 7 3v2l4 1 5 4v2l5 2 4 4v2l5 2 4 4v2l5 2 5 5v2l5 2 8 8 5 4v2l4 1 1 3h2l2 3 4-1 3-4h2l1-4 6-9h2l1-4 4-6h2l1-4 13-19 12-17h2l1-4 2-3h2l1-4 11-16 7-10 16-23 5-7h2l2-4h2l1-3h3v-2z" fill="#020102"/>
<path transform="translate(706,549)" d="m0 0h9l6 2 8 4 4 4v2l3 1 4 8 1 4v10l-4 11-1 2h-2l-1 4-11 16-12 17-4 6h-2l-1 4-6 9h-2l-1 4-14 20-2 3h-2l-1 4-11 16h-2v3h-2l-1 4-9 13h-2v3h-2l-1 4-8 11-9 10-7 5h-3v2l-14 5-4 1h-16l-15-4-10-6v-2l-4-1-1-3-5-2-3-3v-2l-4-2-5-4-4-4-7-6v-2l-5-2-5-6-6-4v-2l-4-2-5-4v-2l-5-2-11-11-5-9-1-9 2-13 2-4h2l1-4 8-7 8-3h13l10 4v2l4 1v2l5 2 15 14 5 4v2l5 2 4 4v2l4 2 6 5v2l4 2 5 4v2l4 1 5 4h2l1-4 2-3h2v-3h2l1-4 2-3h2l1-4 4-6h2v-3h2l1-4 4-6h2l1-4 4-6h2l1-4 2-3h2l1-4 6-9h2l1-4 2-3h2l1-4 6-9h2l1-4 2-3h2l1-4 11-16 2-3h2l1-4 10-14 7-6z" fill="#020202"/>
<path transform="translate(706,987)" d="m0 0h7l13 4 9 8 3 5 3 9v9l-2 6-5 10-28 40-13 19h-2l-1 4-12 17-4 6h-2l-1 4-6 9h-2l-1 4-14 20-2 3h-2v3h-2l-1 4-6 8h-2l-2 4-4 2-1 3h-3v2h-3v2l-14 6-5 1h-19l-13-4-6-3v-2h-3v-2l-4-1v-2l-5-2-3-3v-2l-4-2-6-5v-2l-5-2-3-3v-2l-4-2-5-4-4-4-8-7-7-6v-2l-5-2-3-3v-2l-4-2-2-4-4-2-4-10-1-6v-8l4-10 6-7 8-5 7-2h10l9 3v2h3v2l4 1v2l5 2 7 7 8 7 7 6v2l5 2 8 8 11 9 1 3 5 2v2l4 1 8-11 4-6h2l1-4 9-13h2l1-4 9-13 2-3h2v-3h2l1-4h2l1-4 4-6h2v-3h2l1-4 4-6h2l1-4 4-6h2v-3h2l1-4h2l1-4 6-9h2l1-4 11-16h2l2-5 10-7z" fill="#020102"/>
<path transform="translate(888,1126)" d="m0 0h173l42 1 8 3v2h3v2l4 1 2 5h2v3l2 1 3 9v8l-3 10-6 8-5 4-9 4-72 1h-147l-11-2-6-3v-2l-5-2-1-4h-2l-3-5-2-5v-16l1-3h2l1-5 7-8 8-5z" fill="#010304"/>
<path transform="translate(928,1686)" d="m0 0 4 2 13 10 11 9 14 11 16 13 10 8 14 11 4 3-2 4-13 11-14 11-14 12-9 7-11 9-16 13-14 11-17 14-10 8-32 26-10 7-2 1h-7l-5-3-3-4v-8l14-29 74-148z" fill="#667675"/>
<path transform="translate(927,1687)" d="m0 0h2l-1 4h2v3h-4l-14 31-10 19-31 62-9 17-8 16-3 4 1-6 71-142z" fill="#187DA0"/>
<path transform="translate(1530,298)" d="m0 0h41l16 2 10 5 8 8 1 5-4-5-7-6h-3l-2-1v-3l-5 2-5-2-1-1h-5v-2h-35v2l-7 2-2-2z" fill="#0479A1"/>
<path transform="translate(1499,789)" d="m0 0 2 2v66l2-5 4 1-1 4-6 8h-1z" fill="#067FAB"/>
<path transform="translate(1574,299)" d="m0 0h9l11 4 10 9 2 3-1 3-4-6-6-5h-3l-2-1v-3l-5 2-5-2-1-1h-5z" fill="#057CA6"/>
<path transform="translate(1832,678)" d="m0 0 3 3 5 12 3 14v8l-3 15h-1v-32l-4-12-3-6z" fill="#F27039"/>
<path transform="translate(1694,829)" d="m0 0 4 2 10 8 14 11 13 10 4 2v2l-4-1-14-11-16-13-10-8z" fill="#F97037"/>
<path transform="translate(1499,1256)" d="m0 0h2l-1 79-2-1v-77z" fill="#077EAA"/>
<path transform="translate(868,1805)" d="m0 0h1l-1 7-12 23-4 8-1-4z" fill="#327A92"/>
<path transform="translate(881,1779)" d="m0 0 2 1-2 6-10 20-2 1 1-6z" fill="#1F7C9C"/>
<path transform="translate(893,1755)" d="m0 0 2 1-2 6-9 18h-2l1-5z" fill="#1A7D9F"/>
<path transform="translate(927,1687)" d="m0 0h2l-1 4h2v3h-4l-8 17-3 2 2-6 8-16z" fill="#1E7A99"/>
<path transform="translate(1503,852)" d="m0 0 4 1-1 4-6 8h-1v-8h2z" fill="#057CA7"/>
<path transform="translate(868,1805)" d="m0 0h1l-1 7-6 11h-2l2-6z" fill="#2E7B94"/>
<path transform="translate(1742,660)" d="m0 0 2 1-16 16v-3l7-8z" fill="#EE926B"/>
<path transform="translate(1524,1838)" d="m0 0 3 1-3 8-1 2h-2v2h-2l2-6z" fill="#057BA4"/>
<path transform="translate(881,1779)" d="m0 0 2 1-2 6-3 6-3 1 2-6z" fill="#247C9A"/>
<path transform="translate(893,1755)" d="m0 0 2 1-2 6-2 4-3 1 2-6z" fill="#227C9B"/>
<path transform="translate(1649,773)" d="m0 0v3l-4 6-1 3h-3l-1 2 1-4z" fill="#F37039"/>
</svg>
